<?xml version="1.0" encoding="utf-8"?>
<!-- Generator: Adobe Illustrator 24.2.3, SVG Export Plug-In . SVG Version: 6.00 Build 0)  -->
<svg version="1.1" id="Layer_1" xmlns="http://www.w3.org/2000/svg" xmlns:xlink="http://www.w3.org/1999/xlink" x="0px" y="0px"
	 viewBox="0 0 240 326" style="enable-background:new 0 0 240 326;" xml:space="preserve">
<style type="text/css">
	.st0{fill:#3598DC;}
	.st1{fill:url(#SVGID_1_);}
	.st2{fill:url(#SVGID_2_);}
	.st3{fill:url(#SVGID_3_);}
	.st4{fill:url(#SVGID_4_);}
	.st5{fill:url(#SVGID_5_);}
	.st6{fill:url(#SVGID_6_);}
	.st7{fill:#FFFFFF;}
	.st8{fill:url(#SVGID_7_);}
	.st9{fill:url(#SVGID_8_);}
	.st10{fill:url(#SVGID_9_);}
	.st11{fill:url(#SVGID_10_);}
	.st12{fill:url(#SVGID_11_);}
	.st13{fill:url(#SVGID_12_);}
	.st14{fill:url(#SVGID_13_);}
	.st15{fill:url(#SVGID_14_);}
	.st16{fill:url(#SVGID_15_);}
	.st17{fill:url(#SVGID_16_);}
</style>
<g>
	<polygon class="st0" points="52.25,81.98 119.72,119.85 120,120 178.11,87.38 187.75,81.98 187.75,104.55 187.75,106.18 
		187.75,107.16 230.49,83.17 230.49,45.48 230.49,8.98 120,70.99 9.51,8.98 9.51,156.62 52.25,180.61 	"/>
	<linearGradient id="SVGID_1_" gradientUnits="userSpaceOnUse" x1="119.9999" y1="-56.4788" x2="119.9999" y2="741.8541">
		<stop  offset="0" style="stop-color:#000000"/>
		<stop  offset="0.0837" style="stop-color:#363636;stop-opacity:0.9163"/>
		<stop  offset="0.1691" style="stop-color:#646464;stop-opacity:0.8309"/>
		<stop  offset="0.26" style="stop-color:#8E8E8E;stop-opacity:0.74"/>
		<stop  offset="0.3547" style="stop-color:#B1B1B1;stop-opacity:0.6453"/>
		<stop  offset="0.4545" style="stop-color:#CDCDCD;stop-opacity:0.5455"/>
		<stop  offset="0.5608" style="stop-color:#E3E3E3;stop-opacity:0.4392"/>
		<stop  offset="0.6771" style="stop-color:#F3F3F3;stop-opacity:0.3229"/>
		<stop  offset="0.8105" style="stop-color:#FCFCFC;stop-opacity:0.1895"/>
		<stop  offset="1" style="stop-color:#FFFFFF;stop-opacity:0"/>
	</linearGradient>
	<polygon class="st1" points="187.75,107.12 187.75,229.99 120,268.01 52.2,229.96 52.2,204.77 9.57,180.62 9.51,255.01 
		119.72,316.87 120,317.02 178.11,284.41 230.49,255.01 230.49,242.5 230.49,230.62 230.49,206 230.49,83.13 	"/>
</g>
</svg>
