<?xml version="1.0" encoding="utf-8"?>
<!-- Generator: Adobe Illustrator 24.2.3, SVG Export Plug-In . SVG Version: 6.00 Build 0)  -->
<svg version="1.1" id="Layer_1" xmlns="http://www.w3.org/2000/svg" xmlns:xlink="http://www.w3.org/1999/xlink" x="0px" y="0px"
	 viewBox="0 0 1000 326" style="enable-background:new 0 0 1000 326;" xml:space="preserve">
<style type="text/css">
	.st0{fill:#3598DC;}
	.st1{fill:url(#SVGID_1_);}
	.st2{fill:url(#SVGID_2_);}
	.st3{fill:url(#SVGID_3_);}
	.st4{fill:url(#SVGID_4_);}
	.st5{fill:url(#SVGID_5_);}
	.st6{fill:url(#SVGID_6_);}
	.st7{fill:#FFFFFF;}
	.st8{fill:url(#SVGID_7_);}
	.st9{fill:url(#SVGID_8_);}
	.st10{fill:url(#SVGID_9_);}
	.st11{fill:url(#SVGID_10_);}
	.st12{fill:url(#SVGID_11_);}
	.st13{fill:url(#SVGID_12_);}
	.st14{fill:url(#SVGID_13_);}
	.st15{fill:url(#SVGID_14_);}
	.st16{fill:url(#SVGID_15_);}
	.st17{fill:url(#SVGID_16_);}
</style>
<g>
	<g>
		<g>
			<path d="M357.32,189.09V133.6l-20.11,40.34h-11.49l-20.11-40.34v55.49h-21.41v-92.7h23.24l24.02,48.44l24.15-48.44h23.11v92.7
				H357.32z"/>
			<path d="M430.04,190.39c-5.83,0-11.03-0.96-15.6-2.87c-4.57-1.91-8.42-4.5-11.56-7.77c-3.13-3.26-5.51-7.05-7.12-11.36
				c-1.61-4.31-2.41-8.81-2.41-13.51s0.8-9.21,2.41-13.51c1.61-4.31,3.98-8.1,7.12-11.36c3.13-3.26,6.99-5.88,11.56-7.83
				c4.57-1.96,9.77-2.94,15.6-2.94s11.01,0.98,15.54,2.94c4.52,1.96,8.35,4.57,11.49,7.83c3.13,3.26,5.53,7.05,7.18,11.36
				c1.65,4.31,2.48,8.81,2.48,13.51s-0.8,9.2-2.41,13.51c-1.61,4.31-3.98,8.1-7.12,11.36c-3.13,3.27-6.98,5.86-11.56,7.77
				C441.08,189.43,435.88,190.39,430.04,190.39z M414.77,154.88c0,5.4,1.43,9.72,4.31,12.99c2.87,3.26,6.52,4.89,10.96,4.89
				c2.17,0,4.18-0.43,6.01-1.3c1.82-0.87,3.41-2.09,4.76-3.65c1.34-1.57,2.41-3.46,3.19-5.68c0.78-2.22,1.18-4.64,1.18-7.25
				c0-5.4-1.43-9.73-4.31-12.99c-2.87-3.26-6.48-4.89-10.83-4.89c-2.17,0-4.2,0.43-6.07,1.3c-1.87,0.87-3.48,2.09-4.83,3.66
				c-1.34,1.57-2.41,3.46-3.19,5.68C415.16,149.85,414.77,152.27,414.77,154.88z"/>
			<path d="M522.87,138.43c-5.05,0.08-9.6,0.91-13.64,2.48c-4.04,1.57-7.03,3.92-8.95,7.05v41.12h-20.89v-68.54h19.2v13.84
				c2.43-4.61,5.5-8.21,9.2-10.77c3.7-2.57,7.63-3.94,11.81-4.11c1.74,0,2.83,0.04,3.26,0.13V138.43z"/>
			<path d="M567.26,190.39c-5.74,0-10.89-0.93-15.47-2.81c-4.57-1.87-8.44-4.41-11.62-7.64c-3.18-3.22-5.6-6.94-7.25-11.16
				s-2.48-8.64-2.48-13.25c0-4.96,0.83-9.64,2.48-14.04c1.65-4.39,4.04-8.24,7.18-11.55c3.13-3.31,6.99-5.92,11.56-7.83
				s9.77-2.87,15.6-2.87s11.01,0.96,15.54,2.87c4.53,1.91,8.35,4.5,11.49,7.77c3.13,3.27,5.51,7.03,7.12,11.29
				c1.61,4.27,2.41,8.75,2.41,13.45c0,1.22-0.04,2.41-0.13,3.59c-0.09,1.18-0.22,2.2-0.4,3.07h-50.65
				c0.35,4.61,2.03,8.12,5.03,10.51c3,2.4,6.42,3.59,10.24,3.59c3.04,0,5.99-0.74,8.82-2.22c2.83-1.48,4.72-3.48,5.67-6.01
				l17.75,4.96c-2.7,5.4-6.87,9.79-12.53,13.19C581.97,188.7,575.17,190.39,567.26,190.39z M581.75,148.35
				c-0.43-4.35-2-7.79-4.7-10.32c-2.7-2.52-6.05-3.79-10.05-3.79c-4.09,0-7.46,1.29-10.12,3.85c-2.65,2.57-4.2,5.99-4.64,10.25
				H581.75z"/>
			<path d="M612.95,167.28c0.87,0.7,2.72,1.57,5.55,2.61c2.83,1.05,6.12,1.57,9.87,1.57c3.21,0,5.78-0.54,7.7-1.63
				c1.91-1.09,3.39-2.76,4.44-5.03c1.04-2.26,1.71-5.16,2.02-8.68c0.31-3.53,0.46-7.73,0.46-12.6V96.39h21.41v47.13
				c0,7.05-0.38,13.47-1.12,19.26c-0.74,5.79-2.34,10.73-4.82,14.82c-2.48,4.09-6.12,7.27-10.9,9.53c-4.78,2.26-11.19,3.4-19.19,3.4
				c-7.84,0-14.54-1.92-20.11-5.75L612.95,167.28z"/>
			<path d="M725.36,190.39c-5.22,0-9.75-1.09-13.57-3.26c-3.84-2.17-6.84-5.22-9.02-9.14v38.9h-20.89v-96.35h18.28v11.1
				c2.52-3.91,5.65-6.96,9.4-9.14c3.74-2.17,8.22-3.26,13.44-3.26c4.62,0,8.88,0.91,12.8,2.74c3.91,1.83,7.29,4.33,10.11,7.51
				c2.83,3.18,5.05,6.92,6.66,11.23c1.6,4.31,2.41,8.94,2.41,13.9c0,5.14-0.74,9.88-2.22,14.23c-1.47,4.35-3.54,8.12-6.2,11.29
				c-2.66,3.18-5.78,5.68-9.4,7.5C733.56,189.48,729.62,190.39,725.36,190.39z M718.18,172.76c2.26,0,4.33-0.5,6.2-1.5
				c1.87-1,3.5-2.33,4.89-3.98c1.39-1.65,2.46-3.59,3.2-5.81c0.74-2.22,1.11-4.55,1.11-6.99c0-2.52-0.42-4.85-1.24-6.98
				c-0.83-2.13-1.97-3.98-3.4-5.55c-1.43-1.57-3.15-2.79-5.15-3.66c-2.01-0.87-4.23-1.3-6.66-1.3c-2.88,0-5.62,0.85-8.22,2.55
				s-4.66,3.98-6.14,6.86v14.1c1.39,3.48,3.51,6.4,6.34,8.75C711.93,171.59,714.96,172.76,718.18,172.76z"/>
			<path d="M800.68,190.39c-5.74,0-10.89-0.93-15.47-2.81c-4.57-1.87-8.44-4.41-11.62-7.64c-3.18-3.22-5.6-6.94-7.25-11.16
				c-1.65-4.22-2.48-8.64-2.48-13.25c0-4.96,0.83-9.64,2.48-14.04c1.65-4.39,4.04-8.24,7.18-11.55s6.99-5.92,11.56-7.83
				c4.57-1.91,9.77-2.87,15.6-2.87s11.01,0.96,15.54,2.87s8.35,4.5,11.49,7.77c3.13,3.27,5.51,7.03,7.12,11.29
				c1.61,4.27,2.41,8.75,2.41,13.45c0,1.22-0.04,2.41-0.13,3.59c-0.09,1.18-0.22,2.2-0.4,3.07h-50.65
				c0.35,4.61,2.03,8.12,5.03,10.51c3,2.4,6.42,3.59,10.24,3.59c3.04,0,5.99-0.74,8.82-2.22c2.83-1.48,4.72-3.48,5.67-6.01
				l17.75,4.96c-2.7,5.4-6.87,9.79-12.53,13.19C815.39,188.7,808.6,190.39,800.68,190.39z M815.18,148.35
				c-0.43-4.35-2-7.79-4.7-10.32c-2.7-2.52-6.05-3.79-10.05-3.79c-4.09,0-7.46,1.29-10.12,3.85c-2.65,2.57-4.2,5.99-4.64,10.25
				H815.18z"/>
			<path d="M875.88,189.35c-4.53,0-8.64-0.91-12.34-2.74c-3.7-1.83-6.87-4.31-9.53-7.44c-2.65-3.13-4.72-6.79-6.2-10.97
				s-2.22-8.66-2.22-13.45c0-5.05,0.79-9.73,2.35-14.03c1.57-4.31,3.75-8.05,6.52-11.23c2.79-3.17,6.14-5.68,10.05-7.51
				c3.92-1.82,8.22-2.74,12.93-2.74c5.13,0,9.66,1.11,13.57,3.33c3.92,2.22,7.06,5.29,9.4,9.2v-11.23h18.15v63.84
				c0,5.22-0.98,9.93-2.94,14.1c-1.96,4.18-4.69,7.72-8.17,10.64s-7.65,5.16-12.53,6.73c-4.88,1.57-10.23,2.35-16.06,2.35
				c-7.39,0-13.71-1.17-18.93-3.52c-5.22-2.35-9.79-5.74-13.71-10.18l11.1-11.36c2.52,2.87,5.67,5.16,9.46,6.86
				c3.79,1.7,7.82,2.55,12.08,2.55c2.52,0,4.91-0.35,7.18-1.05c2.26-0.7,4.27-1.76,6.01-3.2c1.74-1.43,3.11-3.31,4.11-5.62
				c1-2.3,1.5-5.07,1.5-8.29v-6.66c-2.09,3.83-5.11,6.72-9.08,8.68C884.65,188.37,880.41,189.35,875.88,189.35z M883.2,172.76
				c3.22,0,6.07-0.89,8.55-2.67c2.48-1.78,4.46-4.07,5.94-6.86v-14.36c-1.39-3.66-3.53-6.55-6.4-8.68c-2.88-2.13-5.92-3.2-9.14-3.2
				c-2.26,0-4.33,0.5-6.2,1.5c-1.87,1-3.48,2.35-4.83,4.05c-1.34,1.7-2.39,3.65-3.13,5.87c-0.74,2.22-1.11,4.5-1.11,6.86
				c0,2.53,0.42,4.85,1.25,6.98c0.82,2.14,1.96,3.98,3.39,5.55c1.43,1.57,3.15,2.78,5.16,3.65
				C878.67,172.33,880.85,172.76,883.2,172.76z"/>
			<path d="M964.02,190.39c-2.88,0-5.86-0.22-8.95-0.65c-3.09-0.43-6.16-1.02-9.2-1.76c-3.04-0.74-5.96-1.65-8.75-2.74
				c-2.79-1.09-5.22-2.28-7.32-3.59l8.23-14.1c4.52,2.61,8.92,4.61,13.18,6.01c4.27,1.39,8.36,2.09,12.28,2.09
				c3.04,0,5.37-0.47,6.98-1.43c1.61-0.96,2.42-2.35,2.42-4.18c0-1.83-1.09-3.24-3.26-4.25c-2.18-1-5.92-2.19-11.23-3.59
				c-4.62-1.22-8.53-2.44-11.75-3.66c-3.22-1.22-5.81-2.59-7.77-4.11c-1.96-1.52-3.37-3.24-4.24-5.16s-1.3-4.18-1.3-6.79
				c0-3.48,0.72-6.66,2.16-9.53c1.43-2.87,3.41-5.31,5.94-7.31c2.52-2,5.51-3.57,8.95-4.7c3.43-1.13,7.2-1.7,11.29-1.7
				c4.78,0,9.68,0.72,14.69,2.16c5,1.43,9.9,3.42,14.68,5.94l-8.22,13.19c-4.26-2.35-8.07-4.07-11.42-5.16
				c-3.35-1.09-6.59-1.63-9.73-1.63c-2.61,0-4.76,0.45-6.47,1.37c-1.69,0.91-2.54,2.37-2.54,4.37c0,0.96,0.22,1.76,0.65,2.41
				c0.43,0.66,1.15,1.27,2.16,1.83c1,0.57,2.32,1.09,3.97,1.57c1.66,0.48,3.71,1.02,6.14,1.63c5.05,1.31,9.31,2.61,12.79,3.92
				c3.48,1.3,6.32,2.76,8.49,4.37s3.74,3.46,4.7,5.55c0.96,2.09,1.44,4.57,1.44,7.44c0,3.4-0.68,6.46-2.03,9.2
				c-1.35,2.74-3.29,5.07-5.81,6.98c-2.52,1.92-5.57,3.4-9.13,4.44S968.45,190.39,964.02,190.39z"/>
		</g>
	</g>
	<polygon class="st0" points="49.14,81.78 116.61,119.65 116.88,119.8 175,87.18 184.63,81.77 184.63,104.35 184.63,105.97 
		184.63,106.96 227.37,82.97 227.37,45.28 227.37,8.77 116.88,70.79 6.39,8.77 6.39,156.42 49.14,180.41 	"/>
	<linearGradient id="SVGID_1_" gradientUnits="userSpaceOnUse" x1="116.8836" y1="-56.6809" x2="116.8836" y2="741.652">
		<stop  offset="0" style="stop-color:#000000"/>
		<stop  offset="0.0837" style="stop-color:#363636;stop-opacity:0.9163"/>
		<stop  offset="0.1691" style="stop-color:#646464;stop-opacity:0.8309"/>
		<stop  offset="0.26" style="stop-color:#8E8E8E;stop-opacity:0.74"/>
		<stop  offset="0.3547" style="stop-color:#B1B1B1;stop-opacity:0.6453"/>
		<stop  offset="0.4545" style="stop-color:#CDCDCD;stop-opacity:0.5455"/>
		<stop  offset="0.5608" style="stop-color:#E3E3E3;stop-opacity:0.4392"/>
		<stop  offset="0.6771" style="stop-color:#F3F3F3;stop-opacity:0.3229"/>
		<stop  offset="0.8105" style="stop-color:#FCFCFC;stop-opacity:0.1895"/>
		<stop  offset="1" style="stop-color:#FFFFFF;stop-opacity:0"/>
	</linearGradient>
	<polygon class="st1" points="184.63,106.92 184.63,229.79 116.88,267.81 49.09,229.76 49.09,204.57 6.46,180.42 6.39,254.81 
		116.61,316.67 116.88,316.82 175,284.2 227.37,254.81 227.37,242.3 227.37,230.42 227.37,205.8 227.37,82.93 	"/>
</g>
</svg>
